<svg width="12" height="12" viewBox="0 0 12 12" fill="none" xmlns="http://www.w3.org/2000/svg">
<path d="M7.875 0.75C7.34797 0.749879 6.82825 0.873212 6.35747 1.11012C5.88669 1.34702 5.47795 1.69091 5.164 2.11422C4.85005 2.53753 4.63962 3.0285 4.54958 3.54778C4.45954 4.06705 4.49239 4.6002 4.6455 5.1045L0.75 9V11.25H3L6.8955 7.3545C7.35971 7.49541 7.84885 7.53458 8.32957 7.46935C8.81029 7.40413 9.2713 7.23603 9.68119 6.97652C10.0911 6.717 10.4402 6.37218 10.7047 5.96554C10.9693 5.5589 11.1431 5.1 11.2143 4.62012C11.2854 4.14024 11.2523 3.65066 11.1172 3.18474C10.982 2.71882 10.748 2.28751 10.4311 1.92021C10.1142 1.55291 9.72178 1.25825 9.28068 1.0563C8.83958 0.854362 8.36013 0.749888 7.875 0.75ZM7.875 6.75C7.61682 6.74986 7.36006 6.7117 7.113 6.63675L6.68287 6.50625L6.36525 6.82388L5.17238 8.01675L4.65525 7.5L4.125 8.03025L4.64212 8.54737L4.04738 9.14213L3.53025 8.625L3 9.15525L3.51712 9.67237L2.6895 10.5H1.5V9.3105L5.17575 5.63475L5.49375 5.31712L5.36325 4.887C5.20297 4.35862 5.21338 3.79316 5.39301 3.27104C5.57263 2.74892 5.91233 2.29674 6.36376 1.97881C6.8152 1.66088 7.3554 1.49341 7.90751 1.5002C8.45962 1.50699 8.99553 1.68771 9.43901 2.01664C9.88249 2.34558 10.211 2.80598 10.3777 3.33236C10.5444 3.85874 10.5409 4.42429 10.3677 4.94857C10.1944 5.47284 9.8603 5.92914 9.41278 6.25256C8.96526 6.57598 8.42715 6.75005 7.875 6.75Z" fill="#3F72AF"/>
<path d="M8.25 4.5C8.66421 4.5 9 4.16421 9 3.75C9 3.33579 8.66421 3 8.25 3C7.83579 3 7.5 3.33579 7.5 3.75C7.5 4.16421 7.83579 4.5 8.25 4.5Z" fill="#3F72AF"/>
</svg>
