<svg width="10" height="11" viewBox="0 0 10 11" fill="none" xmlns="http://www.w3.org/2000/svg">
<path d="M5 0C4.45061 0 3.91355 0.162914 3.45675 0.46814C2.99995 0.773366 2.64391 1.2072 2.43367 1.71477C2.22342 2.22234 2.16842 2.78086 2.2756 3.31969C2.38278 3.85853 2.64734 4.35348 3.03581 4.74196C3.42429 5.13044 3.91925 5.395 4.45808 5.50218C4.99692 5.60936 5.55544 5.55435 6.06301 5.34411C6.57058 5.13387 7.00441 4.77783 7.30964 4.32103C7.61486 3.86422 7.77778 3.32717 7.77778 2.77778C7.77778 2.04107 7.48512 1.33453 6.96419 0.813592C6.44325 0.292658 5.73671 0 5 0ZM5 4.44444C4.67036 4.44444 4.34813 4.3467 4.07405 4.16356C3.79997 3.98042 3.58635 3.72013 3.4602 3.41558C3.33405 3.11104 3.30105 2.77593 3.36536 2.45263C3.42967 2.12933 3.5884 1.83235 3.82149 1.59927C4.05458 1.36618 4.35155 1.20744 4.67485 1.14314C4.99815 1.07883 5.33326 1.11183 5.63781 1.23798C5.94235 1.36412 6.20265 1.57775 6.38578 1.85183C6.56892 2.12591 6.66667 2.44814 6.66667 2.77778C6.66667 3.21981 6.49107 3.64373 6.17851 3.95629C5.86595 4.26885 5.44203 4.44444 5 4.44444ZM10 10.5556V10C10 8.9686 9.59028 7.97945 8.86097 7.25014C8.13166 6.52083 7.14251 6.11111 6.11111 6.11111H3.88889C2.85749 6.11111 1.86834 6.52083 1.13903 7.25014C0.409721 7.97945 0 8.9686 0 10V10.5556H1.11111V10C1.11111 9.26329 1.40377 8.55675 1.9247 8.03581C2.44564 7.51488 3.15218 7.22222 3.88889 7.22222H6.11111C6.84782 7.22222 7.55436 7.51488 8.0753 8.03581C8.59623 8.55675 8.88889 9.26329 8.88889 10V10.5556H10Z" fill="#3F72AF"/>
</svg>
